<svg xmlns="http://www.w3.org/2000/svg" width="44" height="36" viewBox="0 0 44 36" fill="none">
<ellipse cx="21.9338" cy="34.0147" rx="16.0809" ry="1.58823" fill="#F1F1F1"/>
<path fill-rule="evenodd" clip-rule="evenodd" d="M14.0588 9V17.4454C14.0588 17.6787 14.2441 17.8676 14.4724 17.8676H20.2629C20.4912 17.8676 20.6765 17.6787 20.6765 17.4454V9L20.0147 9.41868L19.353 9L18.6912 9.41868L18.0294 9L17.3677 9.41868L16.7059 9L16.0441 9.41868L15.3824 9L14.7206 9.41868L14.0588 9Z" fill="#C08B00"/>
<path fill-rule="evenodd" clip-rule="evenodd" d="M20.6764 16.1471L20.6765 17.4454C20.6765 17.6787 20.4912 17.8677 20.2629 17.8677H14.4724C14.2441 17.8677 14.0588 17.6787 14.0588 17.4454L14.0587 16.1471H20.6764Z" fill="#DB0007"/>
<path fill-rule="evenodd" clip-rule="evenodd" d="M19.8419 11.4135C20.1415 11.4135 20.4248 11.6247 20.6765 12.0007L20.6765 13.9145C20.4847 12.6427 20.1822 11.822 19.8419 11.822C19.2628 11.822 18.7926 14.0179 18.7926 16.7264H17.9532C17.9532 14.0179 17.4834 11.822 16.9036 11.822C16.3245 11.822 15.8545 14.2012 15.8545 17.1349H15.0149C15.0149 13.9749 15.8609 11.4135 16.9036 11.4135C17.4972 11.4135 18.0266 12.1834 18.373 13.3871C18.7192 12.1834 19.2488 11.4135 19.8419 11.4135Z" fill="#FFBC0D"/>
<path d="M26.1997 26.5117L17.9633 26.5117V25.3172L26.9251 25.3171C26.6419 25.6854 26.398 26.0857 26.1997 26.5117Z" fill="#6F6F6F"/>
<path fill-rule="evenodd" clip-rule="evenodd" d="M32.8911 18.4912C31.7762 16.7829 30.4124 14.9384 28.7997 12.9578C28.7473 12.8934 28.6833 12.842 28.6123 12.8052C28.5075 12.7508 28.4118 12.7804 28.3015 12.8144C28.2754 12.8225 28.2486 12.8308 28.2206 12.8382C28.2206 12.8382 28.1019 12.7804 28.061 12.7914L27.3434 12.9837C27.0486 13.0627 26.8613 13.3516 26.9094 13.653L28.2004 21.7313L27.3818 24.786C28.5376 23.582 30.1613 22.8328 31.9596 22.8328C33.156 22.8328 34.2751 23.1644 35.2305 23.7409L35.2305 23.4858C35.4175 23.3108 35.4765 23.0276 35.357 22.7864C34.6474 21.3546 33.8254 19.9229 32.8911 18.4912ZM18.4736 23.9236V19.5438H13C9.65724 19.5438 6.91746 22.1255 6.66612 25.4039C7.81097 23.7311 9.73167 22.6338 11.9081 22.6338C15.1809 22.6338 17.8754 25.115 18.2231 28.3034L25.6695 28.3035C25.7585 27.6717 25.94 27.0697 26.1998 26.5116L18.9559 26.5117C18.9301 26.5117 18.9047 26.5134 18.8798 26.5168C18.609 25.8382 18.4736 24.9738 18.4736 23.9236ZM35.2305 24.4502C34.3016 23.8059 33.1745 23.4284 31.9596 23.4284C29.8283 23.4284 27.9673 24.59 26.9719 26.3165L26.9196 26.5116L26.8644 26.5116C26.5747 27.0623 26.3711 27.6656 26.2716 28.3035L27.2941 28.3035C27.5599 28.3035 27.7849 28.1295 27.8616 27.8892L34.5267 29.12L34.5544 29.1245C34.8677 29.1675 35.1625 28.9567 35.2205 28.6425C35.2271 28.6068 35.2304 28.5706 35.2304 28.5344L35.2305 24.4502ZM11.9081 23.2293C14.8513 23.2293 17.279 25.4445 17.6236 28.3035L6.64708 28.3035L6.64691 26.6551C7.5441 24.6364 9.56236 23.2293 11.9081 23.2293Z" fill="#FFBC0D"/>
<path d="M11.0147 19.9408V20.1488C11.0147 21.0259 10.3036 21.737 9.42649 21.737L8.19824 21.7369C8.94147 20.8797 9.91041 20.2235 11.0126 19.8608C11.0141 19.8873 11.0147 19.914 11.0147 19.9408Z" fill="#DB0007"/>
<rect x="23.7206" y="12.7748" width="5.95588" height="1.19451" rx="0.597256" fill="#292929"/>
<rect x="12.0074" y="17.5529" width="9.8435" height="2.0904" rx="1.0452" fill="#292929"/>
<ellipse cx="11.7427" cy="28.9191" rx="5.36029" ry="5.36029" fill="#292929"/>
<circle cx="11.6765" cy="28.853" r="2.25" fill="#F9F9F9"/>
<path d="M13.4543 27.1324C13.9074 27.5505 14.1912 28.1494 14.1912 28.8145C14.1912 30.0784 13.1666 31.1029 11.9027 31.1029C11.2376 31.1029 10.6388 30.8192 10.2206 30.3662C10.5455 30.5293 10.9122 30.6212 11.3005 30.6212C12.6309 30.6212 13.7094 29.5427 13.7094 28.2123C13.7094 27.8279 13.6194 27.4646 13.4593 27.1423L13.4543 27.1324Z" fill="white"/>
<rect x="9.1618" y="28.9853" width="6.08823" height="0.661766" fill="#292929" fill-opacity="0.1"/>
<path d="M11.9081 23.2293C15.0876 23.2293 17.6655 25.8364 17.6655 29.0529H6.15076C6.15076 25.8364 8.7286 23.2293 11.9081 23.2293Z" fill="#FFBC0D"/>
<circle cx="31.8603" cy="28.9191" r="5.36029" fill="#292929"/>
<circle cx="31.7941" cy="28.853" r="2.25" fill="#F9F9F9"/>
<path d="M33.4396 27.1324C33.8927 27.5505 34.1765 28.1494 34.1765 28.8145C34.1765 30.0784 33.1519 31.1029 31.8879 31.1029C31.2228 31.1029 30.624 30.8192 30.2059 30.3662C30.5307 30.5293 30.8975 30.6212 31.2857 30.6212C32.6161 30.6212 33.6947 29.5427 33.6947 28.2123C33.6947 27.8279 33.6047 27.4646 33.4446 27.1423L33.4396 27.1324Z" fill="white"/>
<rect x="29.147" y="28.9853" width="6.08824" height="0.661766" fill="#292929" fill-opacity="0.1"/>
<path d="M31.9926 23.4265C35.1075 23.4265 37.6453 25.8974 37.75 28.9853H26.2353C26.34 25.8974 28.8778 23.4265 31.9926 23.4265Z" fill="#FFBC0D"/>
</svg>