<svg xmlns="http://www.w3.org/2000/svg" width="20" height="20" viewBox="0 0 20 20" fill="none">
<path opacity="0.6" fill-rule="evenodd" clip-rule="evenodd" d="M9.82572 19.5049C12.7988 19.5049 15.209 19.0229 15.209 18.4282C15.209 17.8336 12.7988 17.3516 9.82572 17.3516C6.85258 17.3516 4.44238 17.8336 4.44238 18.4282C4.44238 19.0229 6.85258 19.5049 9.82572 19.5049Z" fill="#D6D6D6"/>
<path fill-rule="evenodd" clip-rule="evenodd" d="M9.82572 18.4257C10.2106 18.4257 15.209 14.3881 15.209 9.25814C15.209 6.29374 12.7988 3.89062 9.82572 3.89062C6.85258 3.89062 4.44238 6.29374 4.44238 9.25814C4.44238 14.3881 9.44087 18.4257 9.82572 18.4257Z" fill="#DB0007"/>
<path fill-rule="evenodd" clip-rule="evenodd" d="M11.2826 6.68883C11.813 6.68883 12.2427 8.87897 12.2427 11.5805H13.0112C13.0112 8.67092 12.2372 6.3125 11.2826 6.3125C10.7395 6.3125 10.255 7.02147 9.93822 8.12978C9.62145 7.02147 9.13693 6.3125 8.5938 6.3125C7.63947 6.3125 6.86523 8.67092 6.86523 11.5805H7.63378C7.63378 8.87897 8.06373 6.68883 8.5938 6.68883C9.12412 6.68883 9.55407 8.71044 9.55407 11.2042H10.3224C10.3224 8.71044 10.7523 6.68883 11.2826 6.68883Z" fill="#FFBC0D"/>
</svg>